<?xml version="1.0" encoding="UTF-8" standalone="no"?>
<!-- Created with Inkscape (http://www.inkscape.org/) -->

<svg
   xmlns:dc="http://purl.org/dc/elements/1.1/"
   xmlns:cc="http://creativecommons.org/ns#"
   xmlns:rdf="http://www.w3.org/1999/02/22-rdf-syntax-ns#"
   xmlns:svg="http://www.w3.org/2000/svg"
   xmlns="http://www.w3.org/2000/svg"
   xmlns:sodipodi="http://sodipodi.sourceforge.net/DTD/sodipodi-0.dtd"
   xmlns:inkscape="http://www.inkscape.org/namespaces/inkscape"
   width="517.67621mm"
   height="180.62222mm"
   viewBox="0 0 1834.2858 640"
   id="svg2"
   version="1.1"
   inkscape:version="0.91 r13725"
   sodipodi:docname="drawing.svg">
  <defs
     id="defs4" />
  <sodipodi:namedview
     id="base"
     pagecolor="#ffffff"
     bordercolor="#666666"
     borderopacity="1.0"
     inkscape:pageopacity="0.0"
     inkscape:pageshadow="2"
     inkscape:zoom="0.35"
     inkscape:cx="53.704993"
     inkscape:cy="197.14825"
     inkscape:document-units="px"
     inkscape:current-layer="g4239"
     showgrid="false"
     fit-margin-top="0"
     fit-margin-left="0"
     fit-margin-right="0"
     fit-margin-bottom="0"
     inkscape:window-width="1920"
     inkscape:window-height="1007"
     inkscape:window-x="0"
     inkscape:window-y="27"
     inkscape:window-maximized="1" />
  <metadata
     id="metadata7">
    <rdf:RDF>
      <cc:Work
         rdf:about="">
        <dc:format>image/svg+xml</dc:format>
        <dc:type
           rdf:resource="http://purl.org/dc/dcmitype/StillImage" />
        <dc:title></dc:title>
      </cc:Work>
    </rdf:RDF>
  </metadata>
  <g
     inkscape:label="Layer 1"
     inkscape:groupmode="layer"
     id="layer1"
     transform="translate(790.31689,-236.82123)">
    <g
       id="g4239">
      <g
         id="g4249">
        <rect
           style="fill:#ff9e00;fill-opacity:1;stroke:none"
           id="rect4136"
           width="1834.2858"
           height="640"
           x="-790.31689"
           y="236.82123" />
        <g
           id="g4231"
           transform="translate(-31.428571,73.146836)">
          <g
             transform="matrix(2.0303204,0,0,2.0303204,212.12616,-643.59876)"
             id="g4206">
            <path
               style="fill:#ffffff"
               sodipodi:nodetypes="scccccccscccccccscccccccscccccccsssssscccc"
               inkscape:connector-curvature="0"
               id="path4-6"
               d="m -285.3909,493.13054 c -11.83827,0 -11.64165,1.13183 -11.64165,1.13183 -1.40735,6.82459 -2.88196,11.45538 -3.88055,14.22868 -6.03296,1.97132 -11.57568,5.06541 -16.33065,9.05462 -2.86643,-0.56397 -7.49464,-1.61431 -13.9053,-3.88055 0,0 -0.86278,-0.75154 -6.95266,9.53968 -6.10022,10.28087 -5.17406,10.8332 -5.17406,10.8332 4.72392,4.43935 7.82319,7.86329 9.70137,10.18645 -0.81233,3.53906 -1.29352,7.20747 -1.29352,10.99489 0,3.43041 0.30269,6.79096 0.97014,10.02475 -1.92992,2.28177 -5.08222,5.71993 -9.86306,10.02476 0,0 -0.87054,0.42298 5.01237,10.8332 5.87774,10.41022 6.62928,9.70138 6.62928,9.70138 6.47275,-2.13689 11.18504,-3.05529 14.06699,-3.55718 4.73945,4.15478 10.24077,7.2825 16.33065,9.378 1.00377,2.73191 2.58833,7.47911 4.04224,14.55206 0,0 -0.19144,1.13183 11.64165,1.13183 11.81756,0 11.80333,-1.13183 11.80333,-1.13183 1.40735,-6.81942 2.71509,-11.46056 3.71886,-14.22868 6.03296,-1.97132 11.58086,-5.06541 16.33065,-9.05462 2.87161,0.56398 7.49981,1.60914 13.90531,3.88055 0,0 0.84208,0.74636 6.95265,-9.53968 6.08987,-10.29122 5.17406,-10.83321 5.17406,-10.83321 -4.72909,-4.43934 -7.82318,-7.86846 -9.70137,-10.18644 0.80715,-3.54941 1.29352,-7.20747 1.29352,-10.99489 0,-3.43041 -0.30269,-6.79096 -0.97014,-10.02475 1.92992,-2.27659 5.07705,-5.71476 9.86306,-10.02476 0,0 0.87054,-0.4178 -5.01238,-10.8332 -5.87774,-10.4154 -6.62927,-9.70137 -6.62927,-9.70137 -6.46758,2.13689 -11.18504,3.05528 -14.06699,3.55717 -4.73945,-4.14961 -10.24595,-7.2825 -16.33065,-9.378 -0.99859,-2.72673 -2.58315,-7.48429 -4.04224,-14.55206 0,0 0.17592,-1.13183 -11.64164,-1.13183 z m -0.32338,20.69627 c 22.85902,0 41.39253,18.5335 41.39253,41.39253 0,22.85903 -18.53351,41.39253 -41.39253,41.39253 -22.85903,0 -41.39254,-18.5335 -41.39254,-41.39253 0,-22.85903 18.53351,-41.39253 41.39254,-41.39253 z m -36.21847,41.39253 c -17.24689,41.39253 -8.62344,20.69627 0,0 z m 36.21847,20.69627 c -41.39254,27.59502 -20.69627,13.7975 0,0 z" />
            <circle
               style="fill:none;fill-opacity:1;stroke:#ffffff;stroke-width:8;stroke-miterlimit:4;stroke-dasharray:none;stroke-opacity:1"
               id="path4180"
               cx="-285.71429"
               cy="555.21936"
               r="28.960615" />
          </g>
          <g
             transform="translate(148.57143,-165.71429)"
             id="g4202">
            <path
               style="fill:#ffffff;stroke-width:0.2;stroke-miterlimit:4;stroke-dasharray:none"
               sodipodi:nodetypes="scccccccscccccccscccccccscccccccsssssscccc"
               inkscape:connector-curvature="0"
               id="path4"
               d="m -372.59446,597.69883 c -10.34556,5.75446 -9.62357,6.64801 -9.62357,6.64801 2.08748,6.64817 3.0498,11.41185 3.52519,14.32086 -4.31401,4.65532 -7.65384,10.05355 -9.87012,15.85108 -2.77915,0.9005 -7.33434,2.23233 -14.03827,3.36801 0,0 -1.11929,-0.2374 -1.43884,11.71641 -0.33358,11.94981 0.74428,11.98229 0.74428,11.98229 6.28619,1.58333 10.65901,3.06902 13.42963,4.18629 1.01041,3.48767 2.37307,6.92743 4.21411,10.23729 1.66748,2.99785 3.56553,5.78753 5.72074,8.28914 -0.57742,2.93218 -1.661,7.46911 -3.74647,13.55505 0,0 -0.55516,0.79281 9.64627,7.03077 10.19692,6.24047 10.50913,5.25569 10.50913,5.25569 4.61786,-5.0138 8.28956,-8.107 10.56416,-9.94649 6.16145,1.3271 12.48945,1.38629 18.83004,0.25734 2.20517,1.89952 5.8975,5.2779 10.60618,10.75227 0,0 0.38286,1.08218 10.72389,-4.66977 10.32748,-5.74441 9.76486,-6.72661 9.76486,-6.72661 -2.08496,-6.64365 -3.19812,-11.33526 -3.66648,-14.24227 4.31401,-4.65531 7.65837,-10.05605 9.87013,-15.85108 2.78366,-0.903 7.33633,-2.23935 14.03826,-3.368 0,0 1.09871,0.24293 1.43884,-11.71642 0.31952,-11.95382 -0.74428,-11.98229 -0.74428,-11.98229 -6.2907,-1.58082 -10.66152,-3.07354 -13.42963,-4.18628 -1.01996,-3.49421 -2.37308,-6.92743 -4.21411,-10.2373 -1.66748,-2.99785 -3.56553,-5.78754 -5.72074,-8.28913 0.57995,-2.92765 1.65899,-7.46208 3.74647,-13.55506 0,0 0.55769,-0.78828 -9.64627,-7.03076 -10.19945,-6.24499 -10.50913,-5.25568 -10.50913,-5.25568 -4.61335,5.01128 -8.28955,8.10698 -10.56415,9.94646 -6.15893,-1.32257 -12.49399,-1.38377 -18.83006,-0.25732 -2.1981,-1.89751 -5.89548,-5.28495 -10.60616,-10.75229 0,0 -0.39644,-1.07461 -10.7239,4.66979 z m 9.77766,18.24383 c 19.97669,-11.11154 45.18224,-3.92394 56.2938,16.05276 11.11155,19.97671 3.92393,45.18225 -16.05275,56.29381 -19.9767,11.11155 -45.18226,3.92393 -56.29382,-16.05276 -11.11156,-19.9767 -3.92393,-45.18225 16.05277,-56.29381 z m -11.53111,53.77875 c 5.04833,44.55681 2.52418,22.27841 0,0 z m 41.7119,0.48118 c -22.75961,44.23604 -11.37981,22.11801 0,0 z" />
            <circle
               style="fill:none;fill-opacity:1;stroke:#ffffff;stroke-width:8;stroke-miterlimit:4;stroke-dasharray:none;stroke-opacity:1"
               id="path4180-5"
               cx="-342.69839"
               cy="652.11658"
               r="28.960615" />
          </g>
        </g>
      </g>
    </g>
  </g>
</svg>
