<?xml version="1.0" encoding="UTF-8" standalone="no"?>
<!-- Created with Inkscape (http://www.inkscape.org/) -->

<svg
   xmlns:dc="http://purl.org/dc/elements/1.1/"
   xmlns:cc="http://creativecommons.org/ns#"
   xmlns:rdf="http://www.w3.org/1999/02/22-rdf-syntax-ns#"
   xmlns:svg="http://www.w3.org/2000/svg"
   xmlns="http://www.w3.org/2000/svg"
   xmlns:sodipodi="http://sodipodi.sourceforge.net/DTD/sodipodi-0.dtd"
   xmlns:inkscape="http://www.inkscape.org/namespaces/inkscape"
   width="454.65451mm"
   height="144.49779mm"
   viewBox="0 0 1610.9806 512.00003"
   id="svg2"
   version="1.1"
   inkscape:version="0.91 r13725"
   sodipodi:docname="logo2.svg"
   inkscape:export-filename="/home/tjchhajed/Desktop/logo2.png"
   inkscape:export-xdpi="90"
   inkscape:export-ydpi="90">
  <defs
     id="defs4" />
  <sodipodi:namedview
     id="base"
     pagecolor="#ffffff"
     bordercolor="#666666"
     borderopacity="1.0"
     inkscape:pageopacity="0.0"
     inkscape:pageshadow="2"
     inkscape:zoom="0.35"
     inkscape:cx="601.02355"
     inkscape:cy="200.59699"
     inkscape:document-units="px"
     inkscape:current-layer="g4147"
     showgrid="false"
     fit-margin-top="0"
     fit-margin-left="0"
     fit-margin-right="0"
     fit-margin-bottom="0"
     inkscape:window-width="1920"
     inkscape:window-height="1007"
     inkscape:window-x="0"
     inkscape:window-y="27"
     inkscape:window-maximized="1" />
  <metadata
     id="metadata7">
    <rdf:RDF>
      <cc:Work
         rdf:about="">
        <dc:format>image/svg+xml</dc:format>
        <dc:type
           rdf:resource="http://purl.org/dc/dcmitype/StillImage" />
        <dc:title />
      </cc:Work>
    </rdf:RDF>
  </metadata>
  <g
     inkscape:label="Layer 1"
     inkscape:groupmode="layer"
     id="layer1"
     transform="translate(428.09195,-219.21937)">
    <g
       id="g4154">
      <g
         id="g4141">
        <g
           id="g4144">
          <g
             id="g4142"
             transform="matrix(21.333334,0,0,21.333334,-408.57143,219.21934)">
            <g
               id="g4147">
              <path
                 d="m 10.375,0 c -2.288,0 -2.25,0.21875 -2.25,0.21875 -0.272,1.319 -0.557,2.214 -0.75,2.75 -1.166,0.381 -2.23725,0.979 -3.15625,1.75 -0.554,-0.109 -1.4485,-0.312 -2.6875,-0.75 0,0 -0.16675,-0.14525 -1.34375,1.84375 -1.179,1.987 -1,2.09375 -1,2.09375 0.913,0.858 1.512,1.51975 1.875,1.96875 -0.157,0.684 -0.25,1.393 -0.25,2.125 0,0.663 0.0585,1.3125 0.1875,1.9375 -0.373,0.441 -0.98225,1.1055 -1.90625,1.9375 0,0 -0.16825,0.08175 0.96875,2.09375 1.136,2.012 1.28125,1.875 1.28125,1.875 1.251,-0.413 2.16175,-0.5905 2.71875,-0.6875 0.916,0.803 1.97925,1.4075 3.15625,1.8125 0.194,0.528 0.50025,1.4455 0.78125,2.8125 0,0 -0.037,0.21875 2.25,0.21875 2.284,0 2.28125,-0.21875 2.28125,-0.21875 0.272,-1.318 0.52475,-2.215 0.71875,-2.75 1.166,-0.381 2.23825,-0.979 3.15625,-1.75 0.555,0.109 1.4495,0.311 2.6875,0.75 0,0 0.16275,0.14425 1.34375,-1.84375 1.177,-1.989 1,-2.09375 1,-2.09375 -0.914,-0.858 -1.512,-1.52075 -1.875,-1.96875 0.156,-0.686 0.25,-1.393 0.25,-2.125 0,-0.663 -0.0585,-1.3125 -0.1875,-1.9375 0.373,-0.44 0.98125,-1.1045 1.90625,-1.9375 0,0 0.16825,-0.08075 -0.96875,-2.09375 -1.136,-2.013 -1.28125,-1.875 -1.28125,-1.875 -1.25,0.413 -2.16175,0.5905 -2.71875,0.6875 -0.916,-0.802 -1.98025,-1.4075 -3.15625,-1.8125 -0.193,-0.527 -0.49925,-1.4465 -0.78125,-2.8125 0,0 0.034,-0.21875 -2.25,-0.21875 z m -0.0625,4 c 4.418,0 8,3.582 8,8 0,4.418 -3.582,8 -8,8 -4.418,0 -8,-3.582 -8,-8 0,-4.418 3.582,-8 8,-8 z m -7,8 c -3.3333333,8 -1.6666667,4 0,0 z m 7,4 c -8,5.333333 -4,2.666666 0,0 z"
                 id="path4"
                 inkscape:connector-curvature="0"
                 sodipodi:nodetypes="scccccccscccccccscccccccscccccccsssssscccc"
                 style="fill:#ff9e00;fill-opacity:1" />
              <text
                 xml:space="preserve"
                 style="font-style:normal;font-weight:normal;font-size:1.875px;line-height:125%;font-family:sans-serif;letter-spacing:0px;word-spacing:0px;fill:#000000;fill-opacity:1;stroke:none;stroke-width:1px;stroke-linecap:butt;stroke-linejoin:miter;stroke-opacity:1"
                 x="5.2713776"
                 y="16.265785"
                 id="text4138"
                 sodipodi:linespacing="125%"><tspan
                   sodipodi:role="line"
                   id="tspan4140"
                   x="5.2713776"
                   y="16.265785"
                   style="font-style:normal;font-variant:normal;font-weight:bold;font-stretch:normal;font-size:11.71875px;font-family:Sawasdee;-inkscape-font-specification:'Sawasdee Bold'">M <tspan
   id="tspan4142"
   style="font-style:normal;font-variant:normal;font-weight:bold;font-stretch:normal;font-family:Sawasdee;-inkscape-font-specification:Sawasdee;fill:#999999">Consulting</tspan></tspan></text>
            </g>
          </g>
        </g>
        <text
           xml:space="preserve"
           style="font-style:normal;font-weight:normal;font-size:40px;line-height:125%;font-family:sans-serif;letter-spacing:0px;word-spacing:0px;fill:#000000;fill-opacity:1;stroke:none;stroke-width:1px;stroke-linecap:butt;stroke-linejoin:miter;stroke-opacity:1"
           x="93.999977"
           y="572.65393"
           id="text4150"
           sodipodi:linespacing="125%"><tspan
             sodipodi:role="line"
             id="tspan4152"
             x="93.999977"
             y="572.65393"
             style="font-style:normal;font-variant:normal;font-weight:bold;font-stretch:normal;font-size:250px;font-family:Sawasdee;-inkscape-font-specification:'Sawasdee Bold';fill:#808080" /></text>
      </g>
    </g>
  </g>
</svg>
