<?xml version="1.0" encoding="UTF-8" standalone="no"?>
<svg
   xmlns:dc="http://purl.org/dc/elements/1.1/"
   xmlns:cc="http://creativecommons.org/ns#"
   xmlns:rdf="http://www.w3.org/1999/02/22-rdf-syntax-ns#"
   xmlns:svg="http://www.w3.org/2000/svg"
   xmlns="http://www.w3.org/2000/svg"
   xmlns:sodipodi="http://sodipodi.sourceforge.net/DTD/sodipodi-0.dtd"
   xmlns:inkscape="http://www.inkscape.org/namespaces/inkscape"
   viewBox="0 0 22.45505 24"
   enable-background="new 0 0 24 24"
   width="479.04108"
   height="512"
   id="svg2"
   version="1.1"
   inkscape:version="0.91 r13725"
   sodipodi:docname="Settings.svg">
  <metadata
     id="metadata10">
    <rdf:RDF>
      <cc:Work
         rdf:about="">
        <dc:format>image/svg+xml</dc:format>
        <dc:type
           rdf:resource="http://purl.org/dc/dcmitype/StillImage" />
        <dc:title></dc:title>
      </cc:Work>
    </rdf:RDF>
  </metadata>
  <defs
     id="defs8" />
  <sodipodi:namedview
     pagecolor="#ffffff"
     bordercolor="#666666"
     borderopacity="1"
     objecttolerance="10"
     gridtolerance="10"
     guidetolerance="10"
     inkscape:pageopacity="0"
     inkscape:pageshadow="2"
     inkscape:window-width="1366"
     inkscape:window-height="695"
     id="namedview6"
     showgrid="false"
     fit-margin-top="0"
     fit-margin-left="0"
     fit-margin-right="0"
     fit-margin-bottom="0"
     inkscape:zoom="0.5"
     inkscape:cx="35.520524"
     inkscape:cy="132.56497"
     inkscape:window-x="0"
     inkscape:window-y="27"
     inkscape:window-maximized="1"
     inkscape:current-layer="g4147" />
  <g
     id="g4142"
     transform="translate(0.91502455,0)">
    <g
       id="g4147">
      <path
         d="m 10.375,0 c -2.288,0 -2.25,0.21875 -2.25,0.21875 -0.272,1.319 -0.557,2.214 -0.75,2.75 -1.166,0.381 -2.23725,0.979 -3.15625,1.75 -0.554,-0.109 -1.4485,-0.312 -2.6875,-0.75 0,0 -0.16675,-0.14525 -1.34375,1.84375 -1.179,1.987 -1,2.09375 -1,2.09375 0.913,0.858 1.512,1.51975 1.875,1.96875 -0.157,0.684 -0.25,1.393 -0.25,2.125 0,0.663 0.0585,1.3125 0.1875,1.9375 -0.373,0.441 -0.98225,1.1055 -1.90625,1.9375 0,0 -0.16825,0.08175 0.96875,2.09375 1.136,2.012 1.28125,1.875 1.28125,1.875 1.251,-0.413 2.16175,-0.5905 2.71875,-0.6875 0.916,0.803 1.97925,1.4075 3.15625,1.8125 0.194,0.528 0.50025,1.4455 0.78125,2.8125 0,0 -0.037,0.21875 2.25,0.21875 2.284,0 2.28125,-0.21875 2.28125,-0.21875 0.272,-1.318 0.52475,-2.215 0.71875,-2.75 1.166,-0.381 2.23825,-0.979 3.15625,-1.75 0.555,0.109 1.4495,0.311 2.6875,0.75 0,0 0.16275,0.14425 1.34375,-1.84375 1.177,-1.989 1,-2.09375 1,-2.09375 -0.914,-0.858 -1.512,-1.52075 -1.875,-1.96875 0.156,-0.686 0.25,-1.393 0.25,-2.125 0,-0.663 -0.0585,-1.3125 -0.1875,-1.9375 0.373,-0.44 0.98125,-1.1045 1.90625,-1.9375 0,0 0.16825,-0.08075 -0.96875,-2.09375 -1.136,-2.013 -1.28125,-1.875 -1.28125,-1.875 -1.25,0.413 -2.16175,0.5905 -2.71875,0.6875 -0.916,-0.802 -1.98025,-1.4075 -3.15625,-1.8125 -0.193,-0.527 -0.49925,-1.4465 -0.78125,-2.8125 0,0 0.034,-0.21875 -2.25,-0.21875 z m -0.0625,4 c 4.418,0 8,3.582 8,8 0,4.418 -3.582,8 -8,8 -4.418,0 -8,-3.582 -8,-8 0,-4.418 3.582,-8 8,-8 z m -7,8 c -3.3333333,8 -1.6666667,4 0,0 z m 7,4 c -8,5.333333 -4,2.666666 0,0 z"
         id="path4"
         inkscape:connector-curvature="0"
         sodipodi:nodetypes="scccccccscccccccscccccccscccccccsssssscccc"
         style="fill:#ff0000" />
      <text
         xml:space="preserve"
         style="font-style:normal;font-weight:normal;font-size:1.875px;line-height:125%;font-family:sans-serif;letter-spacing:0px;word-spacing:0px;fill:#000000;fill-opacity:1;stroke:none;stroke-width:1px;stroke-linecap:butt;stroke-linejoin:miter;stroke-opacity:1"
         x="5.2713776"
         y="16.265785"
         id="text4138"
         sodipodi:linespacing="125%"><tspan
           sodipodi:role="line"
           id="tspan4140"
           x="5.2713776"
           y="16.265785"
           style="font-style:normal;font-variant:normal;font-weight:bold;font-stretch:normal;font-size:11.71875px;font-family:Sawasdee;-inkscape-font-specification:'Sawasdee Bold'">M</tspan></text>
    </g>
  </g>
</svg>
